<svg viewBox="0 0 52 52" xml:space="preserve" xmlns="http://www.w3.org/2000/svg"><path d="M32.099 8.5h-12.2c-1.6 0-2.9 1.3-2.9 2.9v29.19c0 1.6 1.3 2.91 2.9 2.91h12.2c1.6 0 2.9-1.31 2.9-2.91V11.4c0-1.6-1.3-2.9-2.9-2.9zM27 35.499h-2a1 1 0 1 1 0-2h2a1 1 0 1 1 0 2zM26 22.5c-2.2 0-4-1.8-4-4a3.999 3.999 0 1 1 4 4z" fill="#544f4f" class="fill-000000"></path><path d="M7.731 17.002a1 1 0 0 0-1.413-.05C3.534 19.547 2 23.003 2 26.683s1.533 7.137 4.318 9.732a.996.996 0 0 0 1.413-.05 1 1 0 0 0-.05-1.413C5.307 32.74 4 29.803 4 26.683c0-3.119 1.307-6.055 3.681-8.268a1 1 0 0 0 .05-1.413z" fill="#0d47a1" class="fill-f93e2b"></path><path d="M11.626 19.905a1.002 1.002 0 0 0-1.406.152c-2.94 3.654-2.94 9.6 0 13.254a.998.998 0 0 0 1.406.152 1 1 0 0 0 .153-1.406c-2.384-2.963-2.384-7.784 0-10.746a1 1 0 0 0-.153-1.406zM45.681 16.952a1 1 0 0 0-1.363 1.463C46.692 20.628 48 23.565 48 26.683c0 3.12-1.308 6.057-3.682 8.27a1 1 0 1 0 1.363 1.462c2.785-2.595 4.32-6.051 4.32-9.732-.001-3.68-1.535-7.136-4.32-9.73z" fill="#0d47a1" class="fill-f93e2b"></path><path d="M40.373 19.905a1 1 0 0 0-.153 1.406c2.385 2.962 2.385 7.783 0 10.746a1 1 0 0 0 1.559 1.254c2.94-3.655 2.94-9.6 0-13.254a.998.998 0 0 0-1.406-.152z" fill="#0d47a1" class="fill-f93e2b"></path></svg>