<svg width="24" height="24" viewBox="0 0 24 24" fill="none" xmlns="http://www.w3.org/2000/svg">
<path d="M12 2C6.48001 2 2 6.48 2 12C2 17.52 6.48001 22 12 22C17.52 22 22 17.52 22 12C22 6.48 17.52 2 12 2ZM13  " fill="#000"/>

        <g
           style="stroke-width:1"
           id="g9969">
          <path
             style="fill:#fff;stroke-width:1"
             d="M 13,7.000000054 H 7.181818182 c -1.207272727,0 -2.181818181,0.974545455 -2.181818181,2.181818187 V 20.81818187 c 0,1.20727273 0.974545454,2.18181819 2.181818181,2.18181819 H 13 c 1.20727273,0 2.18181818,-0.97454546 2.18181818,-2.18181819 V 9.181818241 C 15.18181818,7.974545509 14.20727273,7.000000054 13,7.000000054 Z M 13.72727273,19.36363642 H 6.454545455 V 9.181818241 H 13.72727273 Z M 11.54545454,21.5454546 H 8.636363636 v -0.72727273 h 2.909090904 z"
             id="path9967"
             inkscape:connector-curvature="0" />
        </g>

</svg>
