<?xml version="1.0" encoding="UTF-8" standalone="no"?>
<!-- Created with Inkscape (http://www.inkscape.org/) -->

<svg
   xmlns:dc="http://purl.org/dc/elements/1.1/"
   xmlns:cc="http://creativecommons.org/ns#"
   xmlns:rdf="http://www.w3.org/1999/02/22-rdf-syntax-ns#"
   xmlns:svg="http://www.w3.org/2000/svg"
   xmlns="http://www.w3.org/2000/svg"
   xmlns:sodipodi="http://sodipodi.sourceforge.net/DTD/sodipodi-0.dtd"
   xmlns:inkscape="http://www.inkscape.org/namespaces/inkscape"
   width="24"
   height="24"
   viewBox="0 0 6.349999855 6.35000018"
   version="1.1"
   id="svg20037"
   inkscape:version="0.92.1 r15371"
   sodipodi:docname="act_nobgd.svg">
  <defs
     id="defs20031" />
  <sodipodi:namedview
     id="base"
     pagecolor="#ffffff"
     bordercolor="#666666"
     borderopacity="1.0"
     inkscape:pageopacity="0.0"
     inkscape:pageshadow="2"
     inkscape:zoom="22.4"
     inkscape:cx="-7.3160844"
     inkscape:cy="13.482502"
     inkscape:document-units="px"
     inkscape:current-layer="layer1"
     showgrid="false"
     units="px"
     inkscape:window-width="1920"
     inkscape:window-height="1017"
     inkscape:window-x="1072"
     inkscape:window-y="830"
     inkscape:window-maximized="1" />
  <metadata
     id="metadata20034">
    <rdf:RDF>
      <cc:Work
         rdf:about="">
        <dc:format>image/svg+xml</dc:format>
        <dc:type
           rdf:resource="http://purl.org/dc/dcmitype/StillImage" />
        <dc:title></dc:title>
      </cc:Work>
    </rdf:RDF>
  </metadata>
  <g
     inkscape:label="Capa 1"
     inkscape:groupmode="layer"
     id="layer1"
     transform="translate(0,-290.649984)">
    <g
       display="none"
       id="g9991"
       style="display:none;fill:#ff00ff;stroke-width:1"
       transform="matrix(0.264583334,0,0,0.264583334,0,290.649984)">
      <g
         id="g9983"
         style="fill:#ff00ff;stroke-width:1" />
      <g
         id="g9989"
         display="inline"
         style="display:inline;fill:#ff00ff;stroke-width:1">
        <path
           inkscape:connector-curvature="0"
           id="path9985"
           d="m 12,12 c 2.21,0 4,-1.79 4,-4 C 16,5.79 14.21,4 12,4 9.79,4 8,5.79 8,8 c 0,2.21 1.79,4 4,4 z m 0,-6 c 1.1,0 2,0.9 2,2 0,1.1 -0.9,2 -2,2 -1.1,0 -2,-0.9 -2,-2 0,-1.1 0.9,-2 2,-2 z"
           style="fill:#ff00ff;stroke-width:1" />
        <path
           inkscape:connector-curvature="0"
           id="path9987"
           d="m 12,13 c -2.67,0 -8,1.34 -8,4 v 2 c 0,0.55 0.45,1 1,1 h 14 c 0.55,0 1,-0.45 1,-1 v -2 c 0,-2.66 -5.33,-4 -8,-4 z m 6,5 H 6 V 17.01 C 6.2,16.29 9.3,15 12,15 c 2.7,0 5.8,1.29 6,2 z"
           style="fill:#ff00ff;stroke-width:1" />
      </g>
    </g>
    <g
       display="none"
       id="g10001"
       style="display:none;fill:#ff00ff;stroke-width:1"
       transform="matrix(0.264583334,0,0,0.264583334,0,290.649984)">
      <g
         id="g9993"
         style="fill:#ff00ff;stroke-width:1" />
      <g
         id="g9999"
         display="inline"
         style="display:inline;fill:#ff00ff;stroke-width:1">
        <path
           inkscape:connector-curvature="0"
           id="path9995"
           d="m 12,12 c 2.21,0 4,-1.79 4,-4 C 16,5.79 14.21,4 12,4 9.79,4 8,5.79 8,8 c 0,2.21 1.79,4 4,4 z m 0,-6 c 1.1,0 2,0.9 2,2 0,1.1 -0.9,2 -2,2 -1.1,0 -2,-0.9 -2,-2 0,-1.1 0.9,-2 2,-2 z"
           style="fill:#ff00ff;stroke-width:1" />
        <path
           inkscape:connector-curvature="0"
           id="path9997"
           d="m 12,13 c -2.67,0 -8,1.34 -8,4 v 3 h 16 v -3 c 0,-2.66 -5.33,-4 -8,-4 z m 6,5 H 6 V 17.01 C 6.2,16.29 9.3,15 12,15 c 2.7,0 5.8,1.29 6,2 z"
           style="fill:#ff00ff;stroke-width:1" />
      </g>
    </g>
    <g
       display="none"
       id="g10021"
       style="display:none;fill:#ff00ff;stroke-width:1"
       transform="matrix(0.264583334,0,0,0.264583334,0,290.649984)">
      <g
         id="g10009"
         style="fill:#ff00ff;stroke-width:1" />
      <g
         id="g10019"
         display="inline"
         style="display:inline;fill:#ff00ff;stroke-width:1">
        <circle
           id="circle10011"
           r="2"
           cy="8"
           cx="12"
           style="opacity:0.3;fill:#ff00ff;stroke-width:1" />
        <path
           inkscape:connector-curvature="0"
           id="path10013"
           d="M 12,15 C 9.3,15 6.2,16.29 6,17.01 V 18 h 12 v -1 c -0.2,-0.71 -3.3,-2 -6,-2 z"
           style="opacity:0.3;fill:#ff00ff;stroke-width:1" />
        <path
           inkscape:connector-curvature="0"
           id="path10015"
           d="m 12,12 c 2.21,0 4,-1.79 4,-4 C 16,5.79 14.21,4 12,4 9.79,4 8,5.79 8,8 c 0,2.21 1.79,4 4,4 z m 0,-6 c 1.1,0 2,0.9 2,2 0,1.1 -0.9,2 -2,2 -1.1,0 -2,-0.9 -2,-2 0,-1.1 0.9,-2 2,-2 z"
           style="fill:#ff00ff;stroke-width:1" />
        <path
           inkscape:connector-curvature="0"
           id="path10017"
           d="m 12,13 c -2.67,0 -8,1.34 -8,4 v 3 h 16 v -3 c 0,-2.66 -5.33,-4 -8,-4 z m 6,5 H 6 V 17.01 C 6.2,16.29 9.3,15 12,15 c 2.7,0 5.8,1.29 6,2 z"
           style="fill:#ff00ff;stroke-width:1" />
      </g>
    </g>
    <g
       display="none"
       id="g10031"
       style="display:none;fill:#ff00ff;stroke-width:1"
       transform="matrix(0.264583334,0,0,0.264583334,0,290.649984)">
      <g
         id="g10023"
         style="fill:#ff00ff;stroke-width:1" />
      <g
         id="g10029"
         display="inline"
         style="display:inline;fill:#ff00ff;stroke-width:1">
        <path
           inkscape:connector-curvature="0"
           id="path10025"
           d="m 12,12 c 2.21,0 4,-1.79 4,-4 C 16,5.79 14.21,4 12,4 9.79,4 8,5.79 8,8 c 0,2.21 1.79,4 4,4 z m 0,-6 c 1.1,0 2,0.9 2,2 0,1.1 -0.9,2 -2,2 -1.1,0 -2,-0.9 -2,-2 0,-1.1 0.9,-2 2,-2 z"
           style="fill:#ff00ff;stroke-width:1" />
        <path
           inkscape:connector-curvature="0"
           id="path10027"
           d="m 12,13 c -2.67,0 -8,1.34 -8,4 v 3 h 16 v -3 c 0,-2.66 -5.33,-4 -8,-4 z m 6,5 H 6 V 17.01 C 6.2,16.29 9.3,15 12,15 c 2.7,0 5.8,1.29 6,2 z"
           style="fill:#ff00ff;stroke-width:1" />
      </g>
    </g>
    <g
       id="g9981"
       style="fill:none;stroke-width:1"
       transform="matrix(0.26458333,0,0,0.26458333,0,290.64998)">
      <g
         display="none"
         id="g9977"
         style="display:none;fill:none;stroke-width:1" />
      <path
         inkscape:connector-curvature="0"
         id="path9979"
         d="M 0,0 H 24 V 24 H 0 Z"
         style="fill:none;stroke-width:1" />
    </g>
    <path
       inkscape:connector-curvature="0"
       style="fill:#ffffff;stroke-width:0.26458329"
       d="m 2.7272984,292.06425 c -0.2745345,0 -0.4961466,0.22161 -0.4961466,0.49615 0,0.0579 0.011524,0.11411 0.029716,0.16538 v 0.007 H 1.8519344 c -0.1819204,0 -0.3291496,0.14885 -0.3291496,0.33077 v 0.66153 c 0.1819205,0 0.3291496,0.14884 0.3291496,0.33076 0,0.18192 -0.1471901,0.33077 -0.3307644,0.33077 v 0.66153 c 0,0.18192 0.148844,0.33076 0.3307644,0.33076 h 2.6461162 c 0.1819204,0 0.3307644,-0.14884 0.3307644,-0.33076 v -0.66153 c -0.1819204,0 -0.3307644,-0.14885 -0.3307644,-0.33077 0,-0.18192 0.148844,-0.33076 0.3307644,-0.33076 v -0.66153 c 0,-0.18192 -0.148844,-0.33077 -0.3307644,-0.33077 h -0.31203 v -0.007 c 0.018192,-0.0513 0.029716,-0.1075 0.029716,-0.16538 0,-0.27454 -0.2216122,-0.49615 -0.4961466,-0.49615 -0.1736514,0 -0.3241492,0.0892 -0.4134556,0.2232 l -0.082691,0.1108 -0.082691,-0.11241 c -0.089306,-0.13231 -0.2398049,-0.22159 -0.4134562,-0.22159 z m 0,0.33077 c 0.090961,0 0.1653822,0.0744 0.1653822,0.16538 0,0.091 -0.074422,0.16538 -0.1653822,0.16538 -0.09096,0 -0.1653822,-0.0744 -0.1653822,-0.16538 0,-0.091 0.074422,-0.16538 0.1653822,-0.16538 z m 0.9922937,0 c 0.09096,0 0.1653822,0.0744 0.1653822,0.16538 0,0.091 -0.074422,0.16538 -0.1653822,0.16538 -0.09096,0 -0.1653823,-0.0744 -0.1653823,-0.16538 0,-0.091 0.074422,-0.16538 0.1653823,-0.16538 z m -1.8676567,0.66863 h 0.8834384 l -0.3388398,0.46094 0.2677772,0.19348 0.3937517,-0.53587 0.087214,-0.11855 h 0.156338 l 0.087213,0.11855 0.3937517,0.53587 0.2677772,-0.19348 -0.3388399,-0.46094 h 0.786535 v 0.41992 c -0.1968048,0.11411 -0.3307644,0.32926 -0.3307644,0.57238 0,0.24311 0.1339596,0.45826 0.3307644,0.57237 v 0.41992 H 1.8519354 v -0.41992 c 0.1968049,-0.11411 0.3307645,-0.32926 0.3307645,-0.57237 0,-0.24477 -0.1323448,-0.45827 -0.3291496,-0.57238 z m 0.6750955,0.72936 a 0.26312157,0.26312156 0 0 0 -0.262932,0.26326 0.26312157,0.26312156 0 0 0 0.262932,0.26293 0.26312157,0.26312156 0 0 0 0.2632551,-0.26293 0.26312157,0.26312156 0 0 0 -0.2632551,-0.26326 z m 0.6434405,0 a 0.26312157,0.26312156 0 0 0 -0.2632551,0.26326 0.26312157,0.26312156 0 0 0 0.2632551,0.26293 0.26312157,0.26312156 0 0 0 0.2629317,-0.26293 0.26312157,0.26312156 0 0 0 -0.2629317,-0.26326 z m 0.6431172,0 a 0.26312157,0.26312156 0 0 0 -0.2632548,0.26326 0.26312157,0.26312156 0 0 0 0.2632548,0.26293 0.26312157,0.26312156 0 0 0 0.262932,-0.26293 0.26312157,0.26312156 0 0 0 -0.262932,-0.26326 z"
       id="path12732" />
  </g>
</svg>
