<svg width="44" height="44" viewBox="0 0 44 44" fill="none" xmlns="http://www.w3.org/2000/svg">
<g>
<path d="M39.75 20C39.75 29.8031 31.8031 37.75 22 37.75C12.1969 37.75 4.25 29.8031 4.25 20C4.25 10.1969 12.1969 2.25 22 2.25C31.8031 2.25 39.75 10.1969 39.75 20Z" fill="#2C98F0"/>
<path d="M39.75 20C39.75 29.8031 31.8031 37.75 22 37.75C12.1969 37.75 4.25 29.8031 4.25 20C4.25 10.1969 12.1969 2.25 22 2.25C31.8031 2.25 39.75 10.1969 39.75 20Z" stroke="url(#paint0_linear)" stroke-width="0.5"/>
<path d="M39.75 20C39.75 29.8031 31.8031 37.75 22 37.75C12.1969 37.75 4.25 29.8031 4.25 20C4.25 10.1969 12.1969 2.25 22 2.25C31.8031 2.25 39.75 10.1969 39.75 20Z" stroke="url(#paint1_linear)" stroke-width="0.5"/>
<path d="M16.62 18.79C18.06 21.62 20.38 23.93 23.21 25.38L25.41 23.18C25.68 22.91 26.08 22.82 26.43 22.94C27.55 23.31 28.76 23.51 30 23.51C30.55 23.51 31 23.96 31 24.51V28C31 28.55 30.55 29 30 29C20.61 29 13 21.39 13 12C13 11.45 13.45 11 14 11H17.5C18.05 11 18.5 11.45 18.5 12C18.5 13.25 18.7 14.45 19.07 15.57C19.18 15.92 19.1 16.31 18.82 16.59L16.62 18.79Z" fill="white"/>
</g>
</svg>
