<svg width="19" height="20" viewBox="0 0 19 20" fill="none" xmlns="http://www.w3.org/2000/svg">
<path d="M16.4676 10.5374C16.506 10.2303 16.5348 9.92317 16.5348 9.59688C16.5348 9.27058 16.506 8.96348 16.4676 8.65638L18.4925 7.0729C18.6749 6.92894 18.7229 6.66983 18.6077 6.4587L16.6883 3.13818C16.602 2.98463 16.4388 2.89826 16.2661 2.89826C16.2085 2.89826 16.1509 2.90785 16.1029 2.92705L13.7133 3.88673C13.2143 3.50286 12.6768 3.18616 12.0914 2.94624L11.7267 0.403069C11.698 0.172744 11.4964 0 11.2565 0H7.41774C7.17782 0 6.97629 0.172744 6.9475 0.403069L6.58282 2.94624C5.99741 3.18616 5.45998 3.51246 4.96094 3.88673L2.57132 2.92705C2.51374 2.90785 2.45616 2.89826 2.39858 2.89826C2.23543 2.89826 2.07228 2.98463 1.98591 3.13818L0.0665366 6.4587C-0.0582227 6.66983 -0.000641361 6.92894 0.181699 7.0729L2.20664 8.65638C2.16825 8.96348 2.13946 9.28018 2.13946 9.59688C2.13946 9.91357 2.16825 10.2303 2.20664 10.5374L0.181699 12.1209C-0.000641361 12.2648 -0.0486259 12.5239 0.0665366 12.7351L1.98591 16.0556C2.07228 16.2091 2.23543 16.2955 2.40817 16.2955C2.46576 16.2955 2.52334 16.2859 2.57132 16.2667L4.96094 15.307C5.45998 15.6909 5.99741 16.0076 6.58282 16.2475L6.9475 18.7907C6.97629 19.021 7.17782 19.1938 7.41774 19.1938H11.2565C11.4964 19.1938 11.698 19.021 11.7267 18.7907L12.0914 16.2475C12.6768 16.0076 13.2143 15.6813 13.7133 15.307L16.1029 16.2667C16.1605 16.2859 16.2181 16.2955 16.2757 16.2955C16.4388 16.2955 16.602 16.2091 16.6883 16.0556L18.6077 12.7351C18.7229 12.5239 18.6749 12.2648 18.4925 12.1209L16.4676 10.5374ZM14.5674 8.8963C14.6058 9.19381 14.6154 9.39534 14.6154 9.59688C14.6154 9.79841 14.5962 10.0095 14.5674 10.2974L14.4331 11.3819L15.2872 12.0537L16.3236 12.8598L15.6519 14.021L14.4331 13.5316L13.435 13.1285L12.5713 13.7811C12.1586 14.0882 11.7651 14.3185 11.3717 14.4817L10.3544 14.8944L10.2008 15.9788L10.0089 17.2744H8.66534L8.483 15.9788L8.32945 14.8944L7.31218 14.4817C6.89951 14.3089 6.51564 14.0882 6.13176 13.8003L5.25845 13.1285L4.24118 13.5412L3.02237 14.0306L2.35059 12.8694L3.38706 12.0633L4.24118 11.3915L4.10682 10.307C4.07803 10.0095 4.05884 9.78881 4.05884 9.59688C4.05884 9.40494 4.07803 9.18421 4.10682 8.8963L4.24118 7.81186L3.38706 7.14008L2.35059 6.33394L3.02237 5.17272L4.24118 5.66216L5.23925 6.06523L6.10297 5.41264C6.51564 5.10554 6.90911 4.87521 7.30258 4.71207L8.31985 4.2994L8.4734 3.21495L8.66534 1.91938H9.9993L10.1816 3.21495L10.3352 4.2994L11.3525 4.71207C11.7651 4.88481 12.149 5.10554 12.5329 5.39344L13.4062 6.06523L14.4235 5.65256L15.6423 5.16312L16.314 6.32434L15.2872 7.14008L14.4331 7.81186L14.5674 8.8963ZM9.33712 5.75813C7.21621 5.75813 5.49837 7.47597 5.49837 9.59688C5.49837 11.7178 7.21621 13.4356 9.33712 13.4356C11.458 13.4356 13.1759 11.7178 13.1759 9.59688C13.1759 7.47597 11.458 5.75813 9.33712 5.75813ZM9.33712 11.5163C8.28146 11.5163 7.41774 10.6525 7.41774 9.59688C7.41774 8.54122 8.28146 7.6775 9.33712 7.6775C10.3928 7.6775 11.2565 8.54122 11.2565 9.59688C11.2565 10.6525 10.3928 11.5163 9.33712 11.5163Z" fill="#333333" fill-opacity="0.87"/>
</svg>
